# Blender v2.69 (sub 0) OBJ File: ''
# www.blender.org
o Cube.001
v -0.707106 0.707107 -1.016010
v -0.683536 0.636397 -0.982143
v -0.683536 -0.636395 -0.982144
v -0.707107 -0.707106 -1.016011
v -0.047140 0.000000 -0.067734
v 0.000000 0.000000 0.000000
v 0.047140 0.000000 -0.067734
v 0.683537 -0.636396 -0.982143
v 0.707107 -0.707107 -1.016010
v 0.707107 0.707107 -1.016009
v 0.683537 0.636396 -0.982142
v 0.636397 0.683537 -0.982142
v -0.636395 0.683537 -0.982143
v 0.000000 0.047141 -0.067734
v 0.636396 -0.683536 -0.982143
v 0.000000 -0.047140 -0.067734
v -0.636396 -0.683536 -0.982144
v -0.604576 0.649360 -0.982143
v -0.649359 0.604577 -0.982143
v 0.649360 0.604576 -0.982142
v 0.604577 0.649360 -0.982142
v -0.649360 -0.604576 -0.982144
v -0.604576 -0.649359 -0.982144
v 0.604576 -0.649360 -0.982143
v 0.649360 -0.604576 -0.982143
vt 0.000000 0.000000
vt 1.000000 0.000000
vt 0.000000 1.000000
vt 1.000000 1.000000
vn -0.820787 0.000000 0.571234
vn -0.820790 0.000013 0.571230
vn -0.820788 -0.000008 0.571233
vn 0.820784 -0.000005 0.571239
vn 0.820783 0.000004 0.571240
vn 0.820788 -0.000001 0.571233
vn -0.000000 0.820789 0.571232
vn 0.000005 0.820783 0.571240
vn -0.000004 0.820783 0.571240
vn -0.000013 -0.820789 0.571232
vn -0.000001 -0.820778 0.571248
vn -0.000003 -0.820784 0.571238
vn -0.503949 0.503960 -0.701469
vn 0.503961 0.503950 -0.701469
vn -0.503960 -0.503949 -0.701470
vn 0.503949 -0.503960 -0.701470
vn 0.000000 0.000000 -1.000000
vn 0.000000 0.000000 1.000000
vn -0.000001 -0.000001 1.000000
vn 0.000000 -0.000001 1.000000
vn 0.000001 -0.505891 -0.862597
vn -0.505892 0.000001 -0.862597
vn 0.505890 0.000000 -0.862598
vn 0.000001 0.505887 -0.862599
vn -0.202457 0.202456 -0.958135
vn 0.202454 0.202459 -0.958135
vn 0.202457 -0.202457 -0.958135
vn -0.202458 -0.202454 -0.958135
vn -0.820774 -0.000001 0.571253
vn -0.820788 0.000008 0.571234
vn -0.820784 0.000004 0.571239
vn 0.820788 0.000009 0.571233
vn 0.820788 -0.000010 0.571233
vn 0.820788 -0.000001 0.571232
vn -0.000000 0.820788 0.571234
vn 0.000009 0.820782 0.571242
vn -0.000011 0.820782 0.571241
vn -0.000008 -0.820788 0.571233
vn -0.000000 -0.820787 0.571235
vn 0.000006 -0.820788 0.571233
vn -0.503955 0.503955 -0.701469
vn 0.503955 0.503955 -0.701469
vn -0.503959 -0.503949 -0.701470
vn 0.503961 -0.503949 -0.701469
vn -0.000001 0.000001 1.000000
vn 0.000001 -0.505889 -0.862599
vn -0.505891 0.000001 -0.862597
vn 0.505888 0.000001 -0.862599
vn 0.000001 0.505893 -0.862596
s off
f 1/1/1 4/2/1 2/3/1
f 4/1/2 6/2/2 3/3/2
f 2/4/3 5/3/3 6/1/3
f 6/1/4 9/2/4 8/4/4
f 10/1/5 6/2/5 11/3/5
f 10/1/6 11/3/6 9/2/6
f 1/1/7 13/3/7 12/4/7
f 6/1/8 10/2/8 12/4/8
f 1/1/9 6/2/9 13/3/9
f 9/1/10 6/2/10 15/3/10
f 9/1/11 15/3/11 4/2/11
f 6/1/12 4/2/12 17/4/12
f 8/1/13 15/2/13 7/3/13
f 3/1/14 5/2/14 17/3/14
f 7/1/15 14/2/15 12/4/15
f 2/1/16 13/2/16 5/3/16
f 7/1/17 16/2/17 14/3/17
f 13/1/18 2/2/18 19/4/18
f 11/1/18 12/2/18 20/3/18
f 3/1/18 17/2/18 22/3/18
f 15/1/18 8/2/18 24/3/18
f 15/1/19 24/3/19 17/2/19
f 13/1/19 18/3/19 12/2/19
f 11/1/20 20/3/20 8/2/20
f 2/1/20 3/2/20 22/4/20
f 10/1/21 21/3/21 1/2/21
f 9/1/22 25/3/22 10/2/22
f 1/1/23 19/2/23 4/3/23
f 4/1/24 23/3/24 9/2/24
f 25/1/25 9/2/25 24/4/25
f 22/1/26 23/2/26 4/4/26
f 18/4/27 19/1/27 1/2/27
f 20/1/28 21/2/28 10/4/28
f 4/2/29 3/4/29 2/3/29
f 6/2/30 5/4/30 3/3/30
f 1/2/31 2/4/31 6/1/31
f 7/3/32 6/1/32 8/4/32
f 6/2/33 7/4/33 11/3/33
f 11/3/34 8/4/34 9/2/34
f 10/2/35 1/1/35 12/4/35
f 14/3/36 6/1/36 12/4/36
f 6/2/37 14/4/37 13/3/37
f 6/2/38 16/4/38 15/3/38
f 15/3/39 17/4/39 4/2/39
f 16/3/40 6/1/40 17/4/40
f 15/2/41 16/4/41 7/3/41
f 5/2/42 16/4/42 17/3/42
f 11/3/43 7/1/43 12/4/43
f 13/2/44 14/4/44 5/3/44
f 16/2/17 5/4/17 14/3/17
f 18/3/18 13/1/18 19/4/18
f 12/2/18 21/4/18 20/3/18
f 17/2/18 23/4/18 22/3/18
f 8/2/18 25/4/18 24/3/18
f 24/3/45 23/4/45 17/2/45
f 18/3/45 21/4/45 12/2/45
f 20/3/20 25/4/20 8/2/20
f 19/3/20 2/1/20 22/4/20
f 21/3/46 18/4/46 1/2/46
f 25/3/47 20/4/47 10/2/47
f 19/2/48 22/4/48 4/3/48
f 23/3/49 24/4/49 9/2/49
